<?xml version="1.0" encoding="utf-8"?>
<svg version="1.1" xmlns:xlink="http://www.w3.org/1999/xlink" width="14px" height="13px" xmlns="http://www.w3.org/2000/svg">
  <g transform="matrix(1 0 0 1 -1745 -1814 )">
    <path d="M 13.7215909090909 4.98579545454546  C 13.907196969697 5.15814393939394  14 5.36742424242424  14 5.61363636363636  L 14 7.38636363636364  C 14 7.63257575757576  13.907196969697 7.84185606060606  13.7215909090909 8.01420454545454  C 13.5359848484848 8.18655303030303  13.3106060606061 8.27272727272727  13.0454545454545 8.27272727272727  L 8.90909090909091 8.27272727272727  L 8.90909090909091 12.1136363636364  C 8.90909090909091 12.3598484848485  8.81628787878788 12.5691287878788  8.63068181818182 12.7414772727273  C 8.44507575757576 12.9138257575758  8.21969696969697 13  7.95454545454546 13  L 6.04545454545455 13  C 5.78030303030303 13  5.55492424242424 12.9138257575758  5.36931818181818 12.7414772727273  C 5.18371212121212 12.5691287878788  5.09090909090909 12.3598484848485  5.09090909090909 12.1136363636364  L 5.09090909090909 8.27272727272727  L 0.954545454545454 8.27272727272727  C 0.689393939393939 8.27272727272727  0.464015151515152 8.18655303030303  0.278409090909091 8.01420454545454  C 0.0928030303030303 7.84185606060606  0 7.63257575757576  0 7.38636363636364  L 0 5.61363636363636  C 0 5.36742424242424  0.0928030303030303 5.15814393939394  0.278409090909091 4.98579545454546  C 0.464015151515152 4.81344696969697  0.689393939393939 4.72727272727273  0.954545454545454 4.72727272727273  L 5.09090909090909 4.72727272727273  L 5.09090909090909 0.886363636363637  C 5.09090909090909 0.640151515151515  5.18371212121212 0.430871212121211  5.36931818181818 0.258522727272727  C 5.55492424242424 0.086174242424242  5.78030303030303 0  6.04545454545455 0  L 7.95454545454546 0  C 8.21969696969697 0  8.44507575757576 0.086174242424242  8.63068181818182 0.258522727272727  C 8.81628787878788 0.430871212121211  8.90909090909091 0.640151515151515  8.90909090909091 0.886363636363637  L 8.90909090909091 4.72727272727273  L 13.0454545454545 4.72727272727273  C 13.3106060606061 4.72727272727273  13.5359848484848 4.81344696969697  13.7215909090909 4.98579545454546  Z " fill-rule="nonzero" fill="#000000" stroke="none" transform="matrix(1 0 0 1 1745 1814 )" />
  </g>
</svg>