<?xml version="1.0" encoding="utf-8"?>
<svg version="1.1" xmlns:xlink="http://www.w3.org/1999/xlink" width="11px" height="10px" xmlns="http://www.w3.org/2000/svg">
  <g transform="matrix(1 0 0 1 -616 -800 )">
    <path d="M 10.78125 3.83522727272727  C 10.9270833333333 3.96780303030303  11 4.12878787878788  11 4.31818181818182  L 11 5.68181818181818  C 11 5.87121212121212  10.9270833333333 6.03219696969697  10.78125 6.16477272727273  C 10.6354166666667 6.29734848484848  10.4583333333333 6.36363636363636  10.25 6.36363636363636  L 7 6.36363636363636  L 7 9.31818181818182  C 7 9.50757575757576  6.92708333333333 9.66856060606061  6.78125 9.80113636363636  C 6.63541666666667 9.93371212121212  6.45833333333333 10  6.25 10  L 4.75 10  C 4.54166666666667 10  4.36458333333333 9.93371212121212  4.21875 9.80113636363636  C 4.07291666666667 9.66856060606061  4 9.50757575757576  4 9.31818181818182  L 4 6.36363636363636  L 0.75 6.36363636363636  C 0.541666666666667 6.36363636363636  0.364583333333333 6.29734848484848  0.21875 6.16477272727273  C 0.0729166666666667 6.03219696969697  0 5.87121212121212  0 5.68181818181818  L 0 4.31818181818182  C 0 4.12878787878788  0.0729166666666667 3.96780303030303  0.21875 3.83522727272727  C 0.364583333333333 3.70265151515151  0.541666666666667 3.63636363636364  0.75 3.63636363636364  L 4 3.63636363636364  L 4 0.681818181818182  C 4 0.492424242424242  4.07291666666667 0.331439393939393  4.21875 0.198863636363636  C 4.36458333333333 0.0662878787878785  4.54166666666667 0  4.75 0  L 6.25 0  C 6.45833333333333 0  6.63541666666667 0.0662878787878785  6.78125 0.198863636363636  C 6.92708333333333 0.331439393939393  7 0.492424242424242  7 0.681818181818182  L 7 3.63636363636364  L 10.25 3.63636363636364  C 10.4583333333333 3.63636363636364  10.6354166666667 3.70265151515151  10.78125 3.83522727272727  Z " fill-rule="nonzero" fill="#000000" stroke="none" transform="matrix(1 0 0 1 616 800 )" />
  </g>
</svg>