<?xml version="1.0" encoding="utf-8"?>
<svg version="1.1" xmlns:xlink="http://www.w3.org/1999/xlink" width="19px" height="20px" xmlns="http://www.w3.org/2000/svg">
  <g transform="matrix(1 0 0 1 -1060 -1687 )">
    <path d="M 8.34675480769231 1.86941964285714  C 8.06510416666667 1.57552083333333  7.71875 1.42857142857143  7.30769230769231 1.42857142857143  C 6.9042467948718 1.42857142857143  6.55979567307692 1.56808035714286  6.27433894230769 1.84709821428571  C 5.98888221153846 2.12611607142857  5.84615384615385 2.46279761904762  5.84615384615385 2.85714285714286  L 5.84615384615385 8.57142857142857  L 5.84615384615385 12.8571428571429  L 4.12199519230769 10.6026785714286  C 3.80989583333333 10.2008928571429  3.40264423076923 10  2.90024038461539 10  C 2.50440705128205 10  2.16566506410256 10.141369047619  1.88401442307692 10.4241071428571  C 1.60236378205128 10.7068452380952  1.46153846153846 11.0416666666667  1.46153846153846 11.4285714285714  C 1.46153846153846 11.7485119047619  1.5604967948718 12.0349702380952  1.75841346153846 12.2879464285714  L 6.14302884615385 18.0022321428571  C 6.43229166666667 18.3816964285714  6.82051282051282 18.5714285714286  7.30769230769231 18.5714285714286  L 15.5060096153846 18.5714285714286  C 15.6734775641026 18.5714285714286  15.8238181089744 18.5212053571429  15.95703125 18.4207589285714  C 16.0902443910256 18.3203125  16.1758814102564 18.1919642857143  16.2139423076923 18.0357142857143  L 17.2644230769231 13.9285714285714  C 17.4471153846154 13.2142857142857  17.5384615384615 12.4925595238095  17.5384615384615 11.7633928571429  L 17.5384615384615 9.34151785714286  C 17.5384615384615 9.03645833333333  17.431891025641 8.77232142857143  17.21875 8.54910714285714  C 17.005608974359 8.32589285714286  16.7467948717949 8.21428571428571  16.4423076923077 8.21428571428571  C 16.1378205128205 8.21428571428571  15.8790064102564 8.31845238095238  15.6658653846154 8.52678571428571  C 15.4527243589744 8.73511904761905  15.3461538461538 8.98809523809524  15.3461538461538 9.28571428571429  L 14.9807692307692 9.28571428571429  L 14.9807692307692 8.60491071428571  C 14.9807692307692 8.24776785714286  14.8589743589744 7.94456845238095  14.6153846153846 7.6953125  C 14.3717948717949 7.44605654761905  14.0673076923077 7.32142857142857  13.7019230769231 7.32142857142857  C 13.3517628205128 7.32142857142857  13.0510817307692 7.44419642857143  12.7998798076923 7.68973214285714  C 12.5486778846154 7.93526785714286  12.4230769230769 8.22916666666666  12.4230769230769 8.57142857142857  L 12.4230769230769 9.28571428571429  L 12.0576923076923 9.28571428571429  L 12.0576923076923 8.28125  C 12.0576923076923 7.87202380952381  11.9168669871795 7.52046130952381  11.6352163461538 7.2265625  C 11.3535657051282 6.93266369047619  11.0072115384615 6.78571428571429  10.5961538461538 6.78571428571429  C 10.1927083333333 6.78571428571429  9.84825721153846 6.92522321428571  9.56280048076923 7.20424107142857  C 9.27734375 7.48325892857143  9.13461538461539 7.81994047619047  9.13461538461539 8.21428571428571  L 9.13461538461539 9.28571428571429  L 8.76923076923077 9.28571428571429  L 8.76923076923077 2.92410714285714  C 8.76923076923077 2.51488095238095  8.62840544871795 2.16331845238095  8.34675480769231 1.86941964285714  Z M 5.24098557692308 0.837053571428572  C 5.81189903846154 0.279017857142858  6.50080128205128 0  7.30769230769231 0  C 8.12219551282051 0  8.81300080128205 0.288318452380953  9.38010817307692 0.864955357142858  C 9.9472155448718 1.44159226190476  10.2307692307692 2.12797619047619  10.2307692307692 2.92410714285714  L 10.2307692307692 5.37946428571429  C 10.3982371794872 5.36458333333333  10.5200320512821 5.35714285714286  10.5961538461538 5.35714285714286  C 11.3497596153846 5.35714285714286  12.0082131410256 5.61383928571429  12.5715144230769 6.12723214285714  C 12.9292868589744 5.97098214285714  13.3060897435897 5.89285714285714  13.7019230769231 5.89285714285714  C 14.5620993589744 5.89285714285714  15.2624198717949 6.21651785714286  15.8028846153846 6.86383928571429  C 16.0084134615385 6.81175595238095  16.2215544871795 6.78571428571429  16.4423076923077 6.78571428571429  C 17.1578525641026 6.78571428571429  17.7630208333333 7.03683035714286  18.2578125 7.5390625  C 18.7526041666667 8.04129464285714  19 8.64211309523809  19 9.34151785714286  L 19 11.7633928571429  C 19 12.6264880952381  18.8934294871795 13.4635416666667  18.6802884615385 14.2745535714286  L 17.6298076923077 18.3816964285714  C 17.5080128205128 18.8578869047619  17.2491987179487 19.2466517857143  16.8533653846154 19.5479910714286  C 16.4575320512821 19.8493303571429  16.0084134615385 20  15.5060096153846 20  L 7.30769230769231 20  C 6.85096153846154 20  6.41516426282051 19.897693452381  6.00030048076923 19.6930803571429  C 5.58543669871795 19.4884672619048  5.24098557692308 19.2113095238095  4.96694711538461 18.8616071428571  L 0.582331730769231 13.1473214285714  C 0.194110576923077 12.641369047619  0 12.0684523809524  0 11.4285714285714  C 0 10.6473214285714  0.283553685897436 9.97581845238095  0.850661057692308 9.4140625  C 1.41776842948718 8.85230654761905  2.10096153846154 8.57142857142857  2.90024038461539 8.57142857142857  C 3.44070512820513 8.57142857142857  3.9354967948718 8.70163690476191  4.38461538461539 8.96205357142857  L 4.38461538461539 2.85714285714286  C 4.38461538461539 2.06845238095238  4.67007211538461 1.39508928571429  5.24098557692308 0.837053571428572  Z M 8.40384615384615 15.7142857142857  L 8.76923076923077 15.7142857142857  L 8.76923076923077 11.4285714285714  L 8.40384615384615 11.4285714285714  L 8.40384615384615 15.7142857142857  Z M 11.3269230769231 15.7142857142857  L 11.6923076923077 15.7142857142857  L 11.6923076923077 11.4285714285714  L 11.3269230769231 11.4285714285714  L 11.3269230769231 15.7142857142857  Z M 14.25 15.7142857142857  L 14.6153846153846 15.7142857142857  L 14.6153846153846 11.4285714285714  L 14.25 11.4285714285714  L 14.25 15.7142857142857  Z " fill-rule="nonzero" fill="#000000" stroke="none" transform="matrix(1 0 0 1 1060 1687 )" />
  </g>
</svg>